:SAMPLES-PER-SECOND 30
:FRAME-RANGE 1-3358
:FULLY-SPECIFIED
:DEGREES
1470
root  28.5122 35.9316 -16.237 -12.6205 -85.0718 17.1011
RightUpLeg  -29.6037 3.27127 -25.2544
RightLeg  37.895 -3.4232 -3.11309
RightFoot  -6.45081 -0.728469 15.9288
RightToes  -5.8209e-011 0 -3.6325e-017
Spine  10.145 -0.573149 -8.10699
Spine1  -2.9808 -1.13647 -1.37474
HEad  -6.47685 -3.62624 4.1955
LeftShoulder1  0.966322 -1.10776 -14.0133
LeftArm  -36.6777 -15.7205 -5.28115
LeftForeArm  -17.2264 1.20961 -10.0173
LeftHand  0.341606 3.24708 -20.0917
RightShoulder  4.00779 10.7358 21.8641
RightArm  -33.7126 7.76971 -0.90034
RightForeArm  -32.9191 3.00035 9.36598
RightHand  0.581943 0.740191 10.9545
LeftUpLeg  0.400689 7.43379 6.1025
LeftLeg  33.2783 -2.61756 -1.46783
LeftFoot  -37.3308 -2.54651 -11.9788
LeftToes  -4.03819e-010 -8.71445e-011 8.52097e-011
1471
root  28.0402 35.4454 -18.1625 -17.0552 -81.1473 21.8517
RightUpLeg  -26.4227 4.15203 -27.5442
RightLeg  37.5834 -0.893294 -0.995255
RightFoot  -15.2117 0.946704 30.4251
RightToes  -5.8209e-011 0 -3.6325e-017
Spine  10.2492 -0.792601 -9.27819
Spine1  -2.21372 -1.2361 -3.0505
HEad  -9.54933 -4.9362 4.80675
LeftShoulder1  1.04605 -1.30978 -14.8662
LeftArm  -36.7214 -18.0911 -4.12329
LeftForeArm  -16.8408 2.28543 -10.2974
LeftHand  0.261959 3.65377 -19.7353
RightShoulder  3.98004 9.85163 23.6282
RightArm  -32.1332 6.41263 -0.411576
RightForeArm  -33.3454 3.8295 9.93665
RightHand  0.661954 0.903917 12.1167
LeftUpLeg  -0.880323 5.84399 8.59965
LeftLeg  34.7971 -5.29264 -3.564
LeftFoot  -37.2502 -3.02332 -14.0646
LeftToes  -4.03819e-010 -8.71445e-011 8.52097e-011
1472
root  27.174 35.6966 -20.0333 -7.25877 -79.6735 12.9552
RightUpLeg  -26.0087 4.03798 -23.2247
RightLeg  39.2291 -0.835171 -0.998852
RightFoot  -19.5218 1.95925 28.6995
RightToes  -5.8209e-011 0 -3.6325e-017
Spine  10.1589 -0.829702 -6.87608
Spine1  -3.42363 -0.752915 -4.78417
HEad  -10.8854 -5.29697 4.26088
LeftShoulder1  1.02972 -1.13338 -15.3837
LeftArm  -36.5393 -18.2974 -3.84226
LeftForeArm  -16.5671 2.77484 -10.362
LeftHand  0.311648 3.40151 -19.9913
RightShoulder  4.10154 9.67055 25.0319
RightArm  -30.4512 5.05806 -0.119975
RightForeArm  -33.6905 2.36143 10.2134
RightHand  0.709343 0.88135 13.0321
LeftUpLeg  0.927596 5.76642 13.7155
LeftLeg  28.9212 -7.58336 -4.16168
LeftFoot  -33.5946 -3.1518 -16.9484
LeftToes  -4.03819e-010 -8.71445e-011 8.52097e-011
1473
root  26.1885 36.3703 -21.9104 4.66706 -77.155 1.91553
RightUpLeg  -25.4296 1.59414 -16.6659
RightLeg  39.8589 -2.47803 -2.48807
RightFoot  -19.2009 1.51494 23.6516
RightToes  -5.8209e-011 0 -3.6325e-017
Spine  9.17372 -1.21102 -5.47121
Spine1  -3.63269 -1.07491 -3.86464
HEad  -11.9857 -4.4076 2.44333
LeftShoulder1  0.985087 -0.862382 -15.7701
LeftArm  -36.5958 -16.0453 -5.10535
LeftForeArm  -16.6692 1.88936 -10.0215
LeftHand  0.393451 2.97245 -20.1685
RightShoulder  4.21376 9.90683 25.3324
RightArm  -30.5535 3.92005 -0.146025
RightForeArm  -34.6253 0.812074 9.79141
RightHand  0.687418 0.635061 13.175
LeftUpLeg  2.7934 3.7712 18.7252
LeftLeg  20.6053 -5.84291 -1.92661
LeftFoot  -24.8603 -2.37137 -21.0475
LeftToes  -4.03819e-010 -8.71445e-011 8.52097e-011
1474
root  25.056 37.4776 -23.5896 5.34813 -71.807 1.47607
RightUpLeg  -19.9011 -3.46881 -12.5694
RightLeg  34.2776 -3.39259 -2.73272
RightFoot  -18.7046 1.22496 20.8119
RightToes  -5.8209e-011 0 -3.6325e-017
Spine  8.75207 -1.88069 -7.23546
Spine1  -3.7773 -2.37695 -0.105539
HEad  -10.7475 -4.53672 2.00052
LeftShoulder1  0.982801 -0.858634 -15.7341
LeftArm  -37.4378 -15.2902 -6.67071
LeftForeArm  -16.783 1.90265 -9.44358
LeftHand  0.416904 2.83278 -20.0688
RightShoulder  3.82243 8.74762 25.109
RightArm  -31.3954 2.38319 -0.82915
RightForeArm  -35.2424 -0.159944 9.06556
RightHand  0.668326 0.527706 13.0558
LeftUpLeg  3.32765 7.96974 20.3762
LeftLeg  13.5243 -0.90266 2.07458
LeftFoot  -9.00239 0.289088 -11.4963
LeftToes  -4.03819e-010 -8.71445e-011 8.52097e-011
1475
root  24.0088 38.5567 -24.9569 3.42873 -65.6266 4.05566
RightUpLeg  -14.7811 -10.629 -10.4799
RightLeg  27.9267 -3.8174 -2.42116
RightFoot  -16.5294 0.713302 18.0968
RightToes  -5.8209e-011 0 -3.6325e-017
Spine  7.76912 -2.65052 -7.79485
Spine1  -4.23407 -3.19477 0.742089
HEad  -6.87851 -6.55037 1.84244
LeftShoulder1  1.07944 -1.25881 -15.8857
LeftArm  -37.8294 -16.8397 -7.16646
LeftForeArm  -16.0013 2.35459 -9.39068
LeftHand  0.454 2.58933 -19.7639
RightShoulder  2.75195 5.68741 23.8035
RightArm  -32.4653 0.406885 -1.1965
RightForeArm  -35.536 -0.466901 8.27529
RightHand  0.621505 0.342345 12.5608
LeftUpLeg  0.625982 10.4388 19.1611
LeftLeg  14.7496 3.14068 1.777
LeftFoot  -7.12845 0.452948 -11.1294
LeftToes  -4.03819e-010 -8.71445e-011 8.52097e-011
1476
root  23.0199 39.584 -26.1642 3.54177 -62.0408 3.80432
RightUpLeg  -10.9817 -15.0584 -8.08556
RightLeg  22.8379 -3.41339 -1.79439
RightFoot  -11.8796 -0.00113265 16.9289
RightToes  -5.8209e-011 0 -3.6325e-017
Spine  6.26222 -2.43254 -6.05682
Spine1  -3.74395 -2.54631 -0.744968
HEad  -2.509 -8.01656 0.940358
LeftShoulder1  1.18218 -1.68337 -16.0256
LeftArm  -37.7684 -18.111 -6.7984
LeftForeArm  -14.0214 2.36147 -9.66719
LeftHand  0.498562 2.29527 -19.4533
RightShoulder  1.77987 2.70074 22.4993
RightArm  -33.3554 -0.621192 -2.1771
RightForeArm  -34.8902 -1.15487 7.63072
RightHand  0.575871 0.246582 11.8531
LeftUpLeg  -0.685888 15.3796 17.0651
LeftLeg  18.7922 3.88968 1.80379
LeftFoot  -6.50715 0.593139 -13.0852
LeftToes  -4.03819e-010 -8.71445e-011 8.52097e-011
1477
root  22.1519 40.3769 -27.2887 3.27363 -60.368 3.7113
RightUpLeg  -10.1852 -17.7798 -6.67284
RightLeg  22.7122 -0.691334 -0.534743
RightFoot  -6.73028 -0.790833 18.3501
RightToes  -5.8209e-011 0 -3.6325e-017
Spine  4.99771 -2.12284 -5.38631
Spine1  -3.35459 -2.05453 -1.52943
HEad  2.08584 -6.73567 -0.405524
LeftShoulder1  1.13512 -1.54402 -15.694
LeftArm  -37.6663 -17.4394 -5.73555
LeftForeArm  -13.9156 2.03509 -9.71152
LeftHand  0.493263 2.1906 -18.5935
RightShoulder  1.55863 2.22517 20.9229
RightArm  -33.9562 -0.776305 -3.36056
RightForeArm  -32.4476 -2.51718 7.10437
RightHand  0.566385 0.476199 11.1739
LeftUpLeg  -1.21925 18.8052 13.7872
LeftLeg  23.538 2.04626 1.31428
LeftFoot  -6.60549 0.742603 -16.9009
LeftToes  -4.03819e-010 -8.71445e-011 8.52097e-011
1478
root  21.4329 40.8567 -28.3346 2.51587 -60.2634 3.59839
RightUpLeg  -12.4277 -18.5395 -6.37094
RightLeg  28.4202 4.1009 2.17484
RightFoot  -0.690426 -2.0069 21.2509
RightToes  -5.8209e-011 0 -3.6325e-017
Spine  4.49949 -1.84451 -4.86118
Spine1  -2.78154 -1.71678 -1.82425
HEad  6.0279 -3.37985 -1.92244
LeftShoulder1  1.01036 -1.07849 -15.2123
LeftArm  -38.0323 -15.8733 -4.01125
LeftForeArm  -13.8853 2.14066 -9.37483
LeftHand  0.502549 1.99879 -17.804
RightShoulder  1.9906 4.04867 19.9903
RightArm  -34.8039 0.104762 -4.88267
RightForeArm  -29.2917 -3.90012 6.58665
RightHand  0.536326 0.711678 10.1455
LeftUpLeg  -0.438064 19.0997 10.0991
LeftLeg  26.9184 -4.38217 -2.07208
LeftFoot  -7.10883 0.915311 -23.3333
LeftToes  -4.03819e-010 -8.71445e-011 8.52097e-011
1479
root  20.7312 40.9694 -29.3715 2.24186 -61.6154 3.09497
RightUpLeg  -17.3175 -16.0611 -6.88892
RightLeg  37.7189 11.1397 8.86726
RightFoot  6.79326 -3.59419 22.5493
RightToes  -5.8209e-011 0 -3.6325e-017
Spine  3.06651 -1.37798 -3.95278
Spine1  -1.03026 -1.09126 -2.30007
HEad  8.63614 1.02162 -3.68358
LeftShoulder1  0.870328 -0.538492 -14.6407
LeftArm  -39.1367 -13.9575 -2.60126
LeftForeArm  -14.5719 2.34221 -8.59076
LeftHand  0.410455 2.34368 -16.4239
RightShoulder  2.65278 6.83571 19.2184
RightArm  -35.1997 1.76464 -5.09752
RightForeArm  -27.9662 -4.234 6.61389
RightHand  0.498012 0.865433 9.16986
LeftUpLeg  1.20346 19.984 7.45271
LeftLeg  28.7001 -15.8283 -8.86678
LeftFoot  -6.98998 1.22693 -30.5217
LeftToes  -4.03819e-010 -8.71445e-011 8.52097e-011
1480
root  19.995 40.5779 -30.4986 0.68446 -62.256 3.86377
RightUpLeg  -20.7524 -13.4453 -9.10158
RightLeg  43.5019 11.3081 11.0105
RightFoot  5.74282 -4.30878 28.4061
RightToes  -5.8209e-011 0 -3.6325e-017
Spine  2.6112 -1.02015 -4.24214
Spine1  -0.527735 -0.73632 -3.15596
HEad  11.2355 5.19711 -5.4108
LeftShoulder1  0.779456 -0.162685 -14.3401
LeftArm  -39.601 -12.4918 -1.62564
LeftForeArm  -15.971 1.95064 -8.22154
LeftHand  0.316125 2.89153 -15.8505
RightShoulder  3.15293 9.07267 18.5716
RightArm  -35.2184 4.1009 -4.28286
RightForeArm  -26.3207 -4.6572 6.90627
RightHand  0.571572 1.24945 9.87921
LeftUpLeg  2.92032 20.7089 5.57162
LeftLeg  30.4517 -28.0271 -16.3359
LeftFoot  -6.10097 1.69157 -35.1136
LeftToes  -4.03819e-010 -8.71445e-011 8.52097e-011
1481
root  19.2577 40.3116 -31.5841 0.312277 -61.1161 3.63666
RightUpLeg  -22.5474 -12.1797 -11.9127
RightLeg  42.8484 6.73977 6.37539
RightFoot  2.86368 -3.09673 24.656
RightToes  -5.8209e-011 0 -3.6325e-017
Spine  2.55693 -0.795138 -3.65764
Spine1  -0.42009 -0.453785 -3.80528
HEad  13.1139 7.58356 -6.60008
LeftShoulder1  0.759817 -0.0317593 -14.593
LeftArm  -40.1583 -13.3024 -1.0952
LeftForeArm  -16.7363 1.44321 -8.20205
LeftHand  0.212563 3.53065 -15.146
RightShoulder  3.45434 10.2778 18.558
RightArm  -34.9421 5.95407 -3.5685
RightForeArm  -25.2937 -4.64134 7.33048
RightHand  0.649422 1.64306 10.5645
LeftUpLeg  4.7375 18.7028 4.36695
LeftLeg  26.2079 -27.7285 -13.7112
LeftFoot  -4.90324 1.85242 -31.6553
LeftToes  -4.03819e-010 -8.71445e-011 8.52097e-011
